<svg width="140" height="105" viewBox="0 0 140 105" fill="none" xmlns="http://www.w3.org/2000/svg">
<path d="M70.525 0C26.25 0 0 52.5 0 52.5C0 52.5 26.25 105 70.525 105C113.75 105 140 52.5 140 52.5C140 52.5 113.75 0 70.525 0ZM70 17.5C89.425 17.5 105 33.25 105 52.5C105 71.925 89.425 87.5 70 87.5C50.75 87.5 35 71.925 35 52.5C35 33.25 50.75 17.5 70 17.5ZM70 35C60.375 35 52.5 42.875 52.5 52.5C52.5 62.125 60.375 70 70 70C79.625 70 87.5 62.125 87.5 52.5C87.5 50.75 86.8 49.175 86.45 47.6C85.05 50.4 82.25 52.5 78.75 52.5C73.85 52.5 70 48.65 70 43.75C70 40.25 72.1 37.45 74.9 36.05C73.325 35.525 71.75 35 70 35Z" fill="#525252"/>
</svg>
