<svg width="561" height="518" viewBox="0 0 561 518" fill="none" xmlns="http://www.w3.org/2000/svg">
<circle cx="516" cy="45" r="45" fill="#D9D9D9"/>
<path d="M547 445.5C547 485.541 514.541 518 474.5 518C434.459 518 402 485.541 402 445.5C402 405.459 434.459 373 474.5 373C514.541 373 547 405.459 547 445.5Z" fill="#E65131"/>
<path d="M100 382C100 409.614 77.6142 432 50 432C22.3858 432 0 409.614 0 382C0 354.386 22.3858 332 50 332C77.6142 332 100 354.386 100 382Z" fill="#139875"/>
<path d="M452 217.5C452 287.364 395.364 344 325.5 344C255.636 344 199 287.364 199 217.5C199 147.636 255.636 91 325.5 91C395.364 91 452 147.636 452 217.5Z" fill="#0B72A2"/>
<line x1="517.489" y1="90.1789" x2="483.489" y2="373.179" stroke="black" stroke-width="3"/>
<line x1="92.2889" y1="407.528" x2="413.289" y2="470.528" stroke="black" stroke-width="3"/>
<line x1="432.821" y1="387.928" x2="384.821" y2="326.928" stroke="black" stroke-width="3"/>
<line x1="474.856" y1="66.2321" x2="402.856" y2="116.232" stroke="black" stroke-width="3"/>
<line x1="82.5083" y1="342.583" x2="229.508" y2="291.583" stroke="black" stroke-width="3"/>
</svg>
